<svg width="1000" height="300" viewBox="0 0 1000 300" fill="none" xmlns="http://www.w3.org/2000/svg">
<rect width="1000" height="300" rx="10" fill="white"/>
<rect x="137" y="170" width="700" height="50" fill="black"/>
<rect x="147" y="160" width="200" height="50" fill="#CC46FB"/>
<rect x="347" y="160" width="100" height="50" fill="#31D04A"/>
<path d="M747 160H847V210H747V160Z" fill="#FF0000"/>
<rect x="447" y="160" width="300" height="50" fill="#0075FF"/>
<path d="M215.375 104.152H200.288C200.012 102.2 199.45 100.467 198.6 98.951C197.75 97.4124 196.66 96.1035 195.328 95.0241C193.996 93.9448 192.457 93.1181 190.712 92.544C188.99 91.9699 187.118 91.6829 185.097 91.6829C181.446 91.6829 178.266 92.59 175.556 94.4041C172.846 96.1953 170.745 98.8132 169.252 102.258C167.759 105.679 167.013 109.836 167.013 114.727C167.013 119.756 167.759 123.982 169.252 127.403C170.768 130.825 172.88 133.408 175.59 135.154C178.3 136.899 181.435 137.772 184.994 137.772C186.992 137.772 188.84 137.508 190.54 136.979C192.262 136.451 193.789 135.682 195.121 134.672C196.453 133.638 197.555 132.387 198.428 130.917C199.324 129.447 199.944 127.771 200.288 125.888L215.375 125.957C214.985 129.195 214.009 132.318 212.447 135.326C210.909 138.311 208.831 140.987 206.213 143.352C203.618 145.694 200.518 147.554 196.912 148.932C193.33 150.287 189.277 150.964 184.753 150.964C178.461 150.964 172.835 149.541 167.874 146.693C162.937 143.846 159.033 139.724 156.163 134.327C153.315 128.931 151.891 122.397 151.891 114.727C151.891 107.034 153.338 100.49 156.232 95.093C159.125 89.6965 163.052 85.5859 168.012 82.7614C172.972 79.9138 178.553 78.4901 184.753 78.4901C188.84 78.4901 192.629 79.0642 196.12 80.2124C199.634 81.3606 202.745 83.0369 205.455 85.2415C208.165 87.4231 210.369 90.0984 212.069 93.2674C213.791 96.4364 214.893 100.065 215.375 104.152ZM226.071 150V79.4545H240.986V137.703H271.23V150H226.071ZM296.022 79.4545V150H281.107V79.4545H296.022ZM308.294 79.4545H326.688L346.115 126.852H346.942L366.369 79.4545H384.764V150H370.296V104.083H369.711L351.454 149.656H341.603L323.346 103.911H322.761V150H308.294V79.4545ZM397.052 150V79.4545H425.298C430.488 79.4545 434.817 80.2238 438.284 81.7624C441.752 83.301 444.358 85.4367 446.103 88.1694C447.849 90.8791 448.721 94.0022 448.721 97.5387C448.721 100.294 448.17 102.717 447.068 104.807C445.966 106.874 444.45 108.573 442.521 109.905C440.615 111.214 438.433 112.144 435.976 112.695V113.384C438.663 113.499 441.178 114.257 443.52 115.657C445.885 117.058 447.803 119.022 449.272 121.548C450.742 124.051 451.477 127.036 451.477 130.504C451.477 134.247 450.547 137.588 448.687 140.527C446.85 143.444 444.129 145.752 440.523 147.451C436.918 149.15 432.474 150 427.193 150H397.052ZM411.967 137.806H424.127C428.283 137.806 431.315 137.014 433.221 135.429C435.127 133.822 436.08 131.686 436.08 129.022C436.08 127.07 435.609 125.348 434.667 123.855C433.726 122.363 432.382 121.192 430.637 120.342C428.915 119.492 426.86 119.067 424.471 119.067H411.967V137.806ZM411.967 108.975H423.025C425.068 108.975 426.883 108.619 428.467 107.907C430.075 107.172 431.338 106.139 432.256 104.807C433.198 103.475 433.668 101.879 433.668 100.019C433.668 97.4698 432.761 95.4145 430.947 93.853C429.156 92.2914 426.607 91.5106 423.3 91.5106H411.967V108.975ZM461.182 150V79.4545H508.718V91.7518H476.097V108.561H506.272V120.859H476.097V137.703H508.855V150H461.182ZM520.576 150V79.4545H548.408C553.736 79.4545 558.283 80.4076 562.049 82.3136C565.838 84.1966 568.72 86.8719 570.695 90.3395C572.693 93.7841 573.691 97.8372 573.691 102.499C573.691 107.184 572.681 111.214 570.66 114.589C568.639 117.942 565.712 120.514 561.877 122.305C558.064 124.097 553.449 124.992 548.029 124.992H529.394V113.005H545.618C548.466 113.005 550.831 112.615 552.714 111.834C554.597 111.053 555.998 109.882 556.916 108.32C557.858 106.759 558.329 104.818 558.329 102.499C558.329 100.157 557.858 98.1817 556.916 96.5742C555.998 94.9667 554.585 93.7496 552.679 92.9229C550.796 92.0733 548.42 91.6484 545.549 91.6484H535.491V150H520.576ZM558.673 117.896L576.206 150H559.741L542.587 117.896H558.673ZM596.254 79.4545V86.8949C596.254 89.0076 595.84 91.1662 595.014 93.3707C594.21 95.5523 593.131 97.6191 591.776 99.571C590.421 101.5 588.94 103.142 587.332 104.497L580.856 100.673C582.004 98.8591 583.015 96.8498 583.888 94.6452C584.783 92.4407 585.231 89.8802 585.231 86.9638V79.4545H596.254ZM644.573 99.7433C644.297 96.9646 643.115 94.806 641.025 93.2674C638.935 91.7288 636.099 90.9595 632.517 90.9595C630.083 90.9595 628.027 91.304 626.351 91.9929C624.674 92.6589 623.388 93.5889 622.493 94.783C621.62 95.9772 621.184 97.332 621.184 98.8477C621.138 100.111 621.402 101.213 621.976 102.154C622.573 103.096 623.388 103.911 624.422 104.6C625.455 105.266 626.649 105.852 628.004 106.357C629.359 106.839 630.806 107.252 632.344 107.597L638.683 109.113C641.76 109.801 644.584 110.72 647.156 111.868C649.728 113.016 651.956 114.429 653.839 116.105C655.722 117.781 657.18 119.756 658.213 122.03C659.27 124.303 659.809 126.91 659.832 129.849C659.809 134.166 658.707 137.909 656.526 141.078C654.367 144.225 651.244 146.67 647.156 148.415C643.092 150.138 638.189 150.999 632.448 150.999C626.753 150.999 621.792 150.126 617.567 148.381C613.365 146.636 610.081 144.052 607.716 140.631C605.373 137.186 604.145 132.926 604.03 127.851H618.463C618.623 130.216 619.301 132.191 620.495 133.776C621.712 135.337 623.331 136.52 625.352 137.324C627.396 138.105 629.704 138.495 632.276 138.495C634.802 138.495 636.995 138.128 638.855 137.393C640.738 136.658 642.196 135.636 643.229 134.327C644.263 133.018 644.779 131.514 644.779 129.815C644.779 128.23 644.309 126.898 643.367 125.819C642.449 124.74 641.094 123.821 639.303 123.063C637.534 122.305 635.364 121.616 632.792 120.996L625.111 119.067C619.163 117.621 614.467 115.359 611.022 112.282C607.578 109.204 605.867 105.059 605.89 99.8466C605.867 95.5753 607.004 91.8436 609.3 88.6516C611.619 85.4596 614.8 82.968 618.842 81.1768C622.883 79.3857 627.476 78.4901 632.62 78.4901C637.856 78.4901 642.426 79.3857 646.33 81.1768C650.256 82.968 653.311 85.4596 655.492 88.6516C657.674 91.8436 658.799 95.5408 658.868 99.7433H644.573Z" fill="black"/>
<path d="M669.865 150V79.4545H717.4V91.7518H684.78V108.561H714.955V120.859H684.78V137.703H717.538V150H669.865ZM725.125 79.4545H741.831L757.917 109.836H758.606L774.693 79.4545H791.399L765.668 125.061V150H750.856V125.061L725.125 79.4545ZM799.545 150V79.4545H847.081V91.7518H814.461V108.561H844.635V120.859H814.461V137.703H847.219V150H799.545Z" fill="#31D04A"/>
</svg>
