<svg width="204" height="60" viewBox="0 0 204 60" fill="none" xmlns="http://www.w3.org/2000/svg">
<rect y="32" width="51" height="28" rx="14" fill="#CC46FB"/>
<rect x="51" y="32" width="28" height="28" rx="14" fill="#31D04A"/>
<rect x="79" y="32" width="97" height="28" rx="14" fill="#0075FF"/>
<rect x="176" y="32" width="28" height="28" rx="14" fill="#FF0000"/>
<path d="M19.7372 13.7656H15.3821C15.3026 13.2022 15.1402 12.7017 14.8949 12.2642C14.6496 11.8201 14.3348 11.4422 13.9503 11.1307C13.5658 10.8191 13.1217 10.5805 12.6179 10.4148C12.1207 10.2491 11.5805 10.1662 10.9972 10.1662C9.94318 10.1662 9.0251 10.428 8.2429 10.9517C7.4607 11.4687 6.85417 12.2244 6.4233 13.2188C5.99242 14.2064 5.77699 15.4062 5.77699 16.8182C5.77699 18.2699 5.99242 19.4896 6.4233 20.4773C6.8608 21.465 7.47064 22.2107 8.25284 22.7145C9.03504 23.2183 9.93987 23.4702 10.9673 23.4702C11.544 23.4702 12.0777 23.3939 12.5682 23.2415C13.0653 23.089 13.5062 22.867 13.8906 22.5753C14.2751 22.277 14.5933 21.9157 14.8452 21.4915C15.1037 21.0672 15.2827 20.5833 15.3821 20.0398L19.7372 20.0597C19.6245 20.9943 19.3428 21.8958 18.892 22.7642C18.4479 23.6259 17.848 24.3982 17.0923 25.081C16.3433 25.7571 15.4484 26.294 14.4077 26.6918C13.3736 27.0829 12.2036 27.2784 10.8977 27.2784C9.08144 27.2784 7.45739 26.8674 6.02557 26.0455C4.60038 25.2235 3.47348 24.0336 2.64489 22.4759C1.82292 20.9181 1.41193 19.0322 1.41193 16.8182C1.41193 14.5975 1.82955 12.7083 2.66477 11.1506C3.5 9.5928 4.63352 8.40625 6.06534 7.59091C7.49716 6.76894 9.10795 6.35795 10.8977 6.35795C12.0777 6.35795 13.1714 6.52367 14.179 6.85511C15.1932 7.18655 16.0914 7.67045 16.8736 8.30682C17.6558 8.93655 18.2921 9.70881 18.7827 10.6236C19.2798 11.5384 19.598 12.5857 19.7372 13.7656ZM22.8246 27V6.63636H27.13V23.4503H35.8601V27H22.8246ZM43.0167 6.63636V27H38.7113V6.63636H43.0167ZM46.5589 6.63636H51.8686L57.4766 20.3182H57.7152L63.3232 6.63636H68.6328V27H64.4567V13.7457H64.2876L59.0178 26.9006H56.174L50.9041 13.696H50.7351V27H46.5589V6.63636ZM72.18 27V6.63636H80.3335C81.8316 6.63636 83.0811 6.85843 84.082 7.30256C85.083 7.74669 85.8353 8.36316 86.3391 9.15199C86.8429 9.93419 87.0948 10.8357 87.0948 11.8565C87.0948 12.652 86.9357 13.3513 86.6175 13.9545C86.2994 14.5511 85.8619 15.0417 85.305 15.4261C84.7549 15.804 84.1251 16.0724 83.4158 16.2315V16.4304C84.1914 16.4635 84.9173 16.6823 85.5934 17.0866C86.2762 17.491 86.8297 18.0578 87.2539 18.7869C87.6781 19.5095 87.8903 20.3712 87.8903 21.3722C87.8903 22.4527 87.6218 23.4171 87.0849 24.2656C86.5546 25.1075 85.7691 25.7737 84.7283 26.2642C83.6876 26.7547 82.4049 27 80.8803 27H72.18ZM76.4854 23.4801H79.9954C81.1952 23.4801 82.0702 23.2514 82.6204 22.794C83.1706 22.33 83.4457 21.7135 83.4457 20.9446C83.4457 20.3812 83.3098 19.884 83.038 19.4531C82.7662 19.0223 82.3784 18.6842 81.8746 18.4389C81.3775 18.1937 80.7842 18.071 80.0948 18.071H76.4854V23.4801ZM76.4854 15.1577H79.6772C80.2672 15.1577 80.7908 15.0549 81.2482 14.8494C81.7122 14.6373 82.0768 14.339 82.342 13.9545C82.6138 13.5701 82.7496 13.1094 82.7496 12.5724C82.7496 11.8366 82.4878 11.2434 81.9641 10.7926C81.4471 10.3419 80.7113 10.1165 79.7567 10.1165H76.4854V15.1577ZM90.6918 27V6.63636H104.413V10.1861H94.9972V15.0384H103.707V18.5881H94.9972V23.4503H104.453V27H90.6918ZM107.836 27V6.63636H115.87C117.408 6.63636 118.721 6.91146 119.808 7.46165C120.902 8.00521 121.734 8.77746 122.304 9.77841C122.88 10.7727 123.169 11.9427 123.169 13.2884C123.169 14.6406 122.877 15.804 122.294 16.7784C121.71 17.7462 120.865 18.4886 119.758 19.0057C118.658 19.5227 117.325 19.7812 115.761 19.7812H110.382V16.321H115.065C115.887 16.321 116.57 16.2083 117.113 15.983C117.657 15.7576 118.061 15.4195 118.326 14.9688C118.598 14.518 118.734 13.9579 118.734 13.2884C118.734 12.6122 118.598 12.0421 118.326 11.5781C118.061 11.1141 117.654 10.7628 117.103 10.5241C116.56 10.2789 115.874 10.1562 115.045 10.1562H112.142V27H107.836ZM118.833 17.733L123.895 27H119.142L114.19 17.733H118.833ZM129.681 6.63636V8.78409C129.681 9.39394 129.562 10.017 129.324 10.6534C129.092 11.2831 128.78 11.8797 128.389 12.4432C127.998 13 127.57 13.474 127.106 13.8651L125.237 12.7614C125.568 12.2377 125.86 11.6577 126.112 11.0213C126.37 10.3849 126.5 9.64583 126.5 8.80398V6.63636H129.681ZM143.629 12.4929C143.55 11.6908 143.208 11.0677 142.605 10.6236C142.002 10.1794 141.183 9.95739 140.149 9.95739C139.446 9.95739 138.853 10.0568 138.369 10.2557C137.885 10.4479 137.514 10.7164 137.256 11.0611C137.004 11.4058 136.878 11.7969 136.878 12.2344C136.865 12.599 136.941 12.9171 137.107 13.1889C137.279 13.4607 137.514 13.696 137.812 13.8949C138.111 14.0871 138.455 14.2562 138.847 14.402C139.238 14.5412 139.655 14.6605 140.099 14.7599L141.929 15.1974C142.817 15.3963 143.633 15.6615 144.375 15.9929C145.117 16.3243 145.76 16.732 146.304 17.2159C146.848 17.6998 147.268 18.2699 147.567 18.9261C147.872 19.5824 148.027 20.3348 148.034 21.1832C148.027 22.4295 147.709 23.5099 147.08 24.4247C146.456 25.3329 145.555 26.0388 144.375 26.5426C143.202 27.0398 141.786 27.2884 140.129 27.2884C138.485 27.2884 137.054 27.0365 135.834 26.5327C134.621 26.0289 133.673 25.2831 132.99 24.2955C132.314 23.3011 131.959 22.0715 131.926 20.6065H136.092C136.139 21.2893 136.334 21.8594 136.679 22.3168C137.03 22.7675 137.498 23.1089 138.081 23.3409C138.671 23.5663 139.337 23.679 140.08 23.679C140.809 23.679 141.442 23.5729 141.979 23.3608C142.522 23.1487 142.943 22.8537 143.241 22.4759C143.54 22.098 143.689 21.6638 143.689 21.1733C143.689 20.7159 143.553 20.3314 143.281 20.0199C143.016 19.7083 142.625 19.4432 142.108 19.2244C141.598 19.0057 140.971 18.8068 140.229 18.6278L138.011 18.071C136.295 17.6534 134.939 17.0005 133.945 16.1122C132.95 15.224 132.456 14.0275 132.463 12.5227C132.456 11.2898 132.785 10.2126 133.447 9.29119C134.117 8.36979 135.035 7.65057 136.202 7.13352C137.368 6.61648 138.694 6.35795 140.179 6.35795C141.69 6.35795 143.009 6.61648 144.136 7.13352C145.27 7.65057 146.152 8.36979 146.781 9.29119C147.411 10.2126 147.736 11.2798 147.756 12.4929H143.629Z" fill="black"/>
<path d="M150.93 27V6.63636H164.652V10.1861H155.235V15.0384H163.946V18.5881H155.235V23.4503H164.691V27H150.93ZM166.881 6.63636H171.704L176.347 15.4062H176.546L181.19 6.63636H186.012L178.585 19.8011V27H174.309V19.8011L166.881 6.63636ZM188.364 27V6.63636H202.085V10.1861H192.669V15.0384H201.379V18.5881H192.669V23.4503H202.125V27H188.364Z" fill="#369B40"/>
</svg>
