<svg width="716" height="164" viewBox="0 0 716 164" fill="none" xmlns="http://www.w3.org/2000/svg">
<rect y="114" width="700" height="50" fill="black"/>
<rect x="10" y="104" width="200" height="50" fill="#CC46FB"/>
<rect x="210" y="104" width="100" height="50" fill="#31D04A"/>
<path d="M610 104H710V154H610V104Z" fill="#FF0000"/>
<rect x="310" y="104" width="300" height="50" fill="#0075FF"/>
<path d="M78.3754 48.1523H63.288C63.0124 46.2004 62.4498 44.4666 61.6001 42.951C60.7505 41.4124 59.6597 40.1035 58.3278 39.0241C56.9959 37.9448 55.4573 37.1181 53.712 36.544C51.9897 35.9699 50.1181 35.6829 48.0973 35.6829C44.446 35.6829 41.2655 36.59 38.5558 38.4041C35.846 40.1953 33.7448 42.8132 32.2521 46.2578C30.7595 49.6794 30.0131 53.8359 30.0131 58.7273C30.0131 63.7564 30.7595 67.9818 32.2521 71.4034C33.7678 74.825 35.8804 77.4085 38.5902 79.1538C41.3 80.899 44.4345 81.7717 47.994 81.7717C49.9918 81.7717 51.8404 81.5076 53.5398 80.9794C55.2621 80.4512 56.7892 79.6819 58.1211 78.6715C59.453 77.6381 60.5553 76.3866 61.4279 74.9169C62.3235 73.4472 62.9435 71.7708 63.288 69.8878L78.3754 69.9567C77.985 73.1946 77.009 76.3177 75.4474 79.326C73.9089 82.3113 71.8306 84.9866 69.2127 87.3519C66.6178 89.6942 63.5176 91.5543 59.9123 92.9322C56.3299 94.2871 52.2768 94.9645 47.7528 94.9645C41.4607 94.9645 35.8345 93.5407 30.8743 90.6932C25.937 87.8456 22.0331 83.7236 19.1626 78.3271C16.3151 72.9305 14.8913 66.3973 14.8913 58.7273C14.8913 51.0343 16.3381 44.4896 19.2315 39.093C22.125 33.6965 26.0518 29.5859 31.0121 26.7614C35.9723 23.9138 41.5526 22.4901 47.7528 22.4901C51.8404 22.4901 55.6295 23.0642 59.12 24.2124C62.6335 25.3606 65.7451 27.0369 68.4549 29.2415C71.1647 31.4231 73.3692 34.0984 75.0685 37.2674C76.7908 40.4364 77.8931 44.0647 78.3754 48.1523ZM89.0708 94V23.4545H103.986V81.7028H134.23V94H89.0708ZM159.022 23.4545V94H144.107V23.4545H159.022ZM171.294 23.4545H189.688L209.115 70.8523H209.942L229.369 23.4545H247.764V94H233.296V48.0834H232.711L214.454 93.6555H204.603L186.346 47.9112H185.761V94H171.294V23.4545ZM260.052 94V23.4545H288.298C293.488 23.4545 297.817 24.2238 301.284 25.7624C304.752 27.301 307.358 29.4367 309.103 32.1694C310.849 34.8791 311.721 38.0022 311.721 41.5387C311.721 44.2944 311.17 46.7171 310.068 48.8068C308.966 50.8736 307.45 52.5729 305.521 53.9048C303.615 55.2138 301.433 56.1438 298.976 56.695V57.3839C301.663 57.4987 304.178 58.2565 306.52 59.6573C308.885 61.0581 310.803 63.0215 312.272 65.5476C313.742 68.0507 314.477 71.036 314.477 74.5036C314.477 78.2467 313.547 81.5879 311.687 84.5273C309.85 87.4438 307.129 89.7517 303.523 91.451C299.918 93.1503 295.474 94 290.193 94H260.052ZM274.967 81.8061H287.127C291.283 81.8061 294.315 81.0138 296.221 79.4293C298.127 77.8219 299.08 75.6862 299.08 73.0224C299.08 71.0704 298.609 69.3481 297.667 67.8555C296.726 66.3628 295.382 65.1916 293.637 64.342C291.915 63.4923 289.86 63.0675 287.471 63.0675H274.967V81.8061ZM274.967 52.9748H286.025C288.068 52.9748 289.883 52.6188 291.467 51.907C293.075 51.1721 294.338 50.1387 295.256 48.8068C296.198 47.4749 296.668 45.8789 296.668 44.0188C296.668 41.4698 295.761 39.4145 293.947 37.853C292.156 36.2914 289.607 35.5106 286.3 35.5106H274.967V52.9748ZM324.182 94V23.4545H371.718V35.7518H339.097V52.5614H369.272V64.8587H339.097V81.7028H371.855V94H324.182ZM383.576 94V23.4545H411.408C416.736 23.4545 421.283 24.4076 425.049 26.3136C428.838 28.1966 431.72 30.8719 433.695 34.3395C435.693 37.7841 436.691 41.8372 436.691 46.4989C436.691 51.1836 435.681 55.2138 433.66 58.5895C431.639 61.9422 428.712 64.5142 424.877 66.3054C421.064 68.0966 416.449 68.9922 411.029 68.9922H392.394V57.005H408.618C411.466 57.005 413.831 56.6146 415.714 55.8338C417.597 55.053 418.998 53.8819 419.916 52.3203C420.858 50.7588 421.329 48.8183 421.329 46.4989C421.329 44.1566 420.858 42.1817 419.916 40.5742C418.998 38.9667 417.585 37.7496 415.679 36.9229C413.796 36.0733 411.42 35.6484 408.549 35.6484H398.491V94H383.576ZM421.673 61.8963L439.206 94H422.741L405.587 61.8963H421.673ZM459.254 23.4545V30.8949C459.254 33.0076 458.84 35.1662 458.014 37.3707C457.21 39.5523 456.131 41.6191 454.776 43.571C453.421 45.5 451.94 47.1419 450.332 48.4968L443.856 44.6733C445.004 42.8591 446.015 40.8498 446.888 38.6452C447.783 36.4407 448.231 33.8802 448.231 30.9638V23.4545H459.254ZM507.573 43.7433C507.297 40.9646 506.115 38.806 504.025 37.2674C501.935 35.7288 499.099 34.9595 495.517 34.9595C493.083 34.9595 491.027 35.304 489.351 35.9929C487.674 36.6589 486.388 37.5889 485.493 38.783C484.62 39.9772 484.184 41.332 484.184 42.8477C484.138 44.1107 484.402 45.2129 484.976 46.1545C485.573 47.096 486.388 47.9112 487.422 48.6001C488.455 49.2661 489.649 49.8517 491.004 50.3569C492.359 50.8391 493.806 51.2525 495.344 51.5969L501.683 53.1126C504.76 53.8015 507.584 54.7201 510.156 55.8683C512.728 57.0165 514.956 58.4287 516.839 60.1051C518.722 61.7815 520.18 63.7564 521.213 66.0298C522.27 68.3033 522.809 70.9097 522.832 73.8491C522.809 78.1663 521.707 81.9094 519.526 85.0785C517.367 88.2246 514.244 90.6702 510.156 92.4155C506.092 94.1378 501.189 94.9989 495.448 94.9989C489.753 94.9989 484.792 94.1263 480.567 92.381C476.365 90.6358 473.081 88.0523 470.716 84.6307C468.373 81.1861 467.145 76.9263 467.03 71.8512H481.463C481.623 74.2165 482.301 76.1914 483.495 77.7759C484.712 79.3375 486.331 80.5201 488.352 81.3239C490.396 82.1046 492.704 82.495 495.276 82.495C497.802 82.495 499.995 82.1276 501.855 81.3928C503.738 80.6579 505.196 79.636 506.229 78.3271C507.263 77.0181 507.779 75.514 507.779 73.8146C507.779 72.2301 507.309 70.8982 506.367 69.8189C505.449 68.7396 504.094 67.821 502.303 67.0632C500.534 66.3054 498.364 65.6165 495.792 64.9964L488.111 63.0675C482.163 61.6207 477.467 59.3588 474.022 56.2816C470.578 53.2044 468.867 49.0594 468.89 43.8466C468.867 39.5753 470.004 35.8436 472.3 32.6516C474.619 29.4596 477.8 26.968 481.842 25.1768C485.883 23.3857 490.476 22.4901 495.62 22.4901C500.856 22.4901 505.426 23.3857 509.33 25.1768C513.256 26.968 516.311 29.4596 518.492 32.6516C520.674 35.8436 521.799 39.5408 521.868 43.7433H507.573Z" fill="black"/>
<path d="M532.865 94V23.4545H580.4V35.7518H547.78V52.5614H577.955V64.8587H547.78V81.7028H580.538V94H532.865ZM588.125 23.4545H604.831L620.917 53.8359H621.606L637.693 23.4545H654.399L628.668 69.0611V94H613.856V69.0611L588.125 23.4545ZM662.545 94V23.4545H710.081V35.7518H677.461V52.5614H707.635V64.8587H677.461V81.7028H710.219V94H662.545Z" fill="#31D04A"/>
</svg>
